<svg width="264" height="162" viewBox="0 0 264 162" fill="none" xmlns="http://www.w3.org/2000/svg">
<g clip-path="url(#clip0_1222:846)">
<mask id="path-1-outside-1_1222:846" maskUnits="userSpaceOnUse" x="0" y="0" width="264" height="162" fill="black">
<rect fill="white" width="264" height="162"/>
<path fill-rule="evenodd" clip-rule="evenodd" d="M1 1H263V151.696L252 160.696L240 150.696L228 160.696L216 150.696L204 160.696L192 150.696L180 160.696L168 150.696L156 160.696L144 150.696L132 160.696L120 150.696L108 160.696L96 150.696L84 160.696L72 150.696L60 160.696L48 150.696L36 160.696L24 150.696L12 160.696L1 151.53V1Z"/>
</mask>
<path fill-rule="evenodd" clip-rule="evenodd" d="M1 1H263V151.696L252 160.696L240 150.696L228 160.696L216 150.696L204 160.696L192 150.696L180 160.696L168 150.696L156 160.696L144 150.696L132 160.696L120 150.696L108 160.696L96 150.696L84 160.696L72 150.696L60 160.696L48 150.696L36 160.696L24 150.696L12 160.696L1 151.53V1Z" fill="white"/>
<path d="M263 1V0H264V1H263ZM1 1H0V0H1V1ZM263 151.696H264V152.17L263.633 152.47L263 151.696ZM252 160.696L252.633 161.47L251.994 161.993L251.36 161.464L252 160.696ZM240 150.696L239.36 149.928L240 149.394L240.64 149.928L240 150.696ZM228 160.696L228.64 161.464L228 161.998L227.36 161.464L228 160.696ZM216 150.696L215.36 149.928L216 149.394L216.64 149.928L216 150.696ZM204 160.696L204.64 161.464L204 161.998L203.36 161.464L204 160.696ZM192 150.696L191.36 149.928L192 149.394L192.64 149.928L192 150.696ZM180 160.696L180.64 161.464L180 161.998L179.36 161.464L180 160.696ZM168 150.696L167.36 149.928L168 149.394L168.64 149.928L168 150.696ZM156 160.696L156.64 161.464L156 161.998L155.36 161.464L156 160.696ZM144 150.696L143.36 149.928L144 149.394L144.64 149.928L144 150.696ZM132 160.696L132.64 161.464L132 161.998L131.36 161.464L132 160.696ZM120 150.696L119.36 149.928L120 149.394L120.64 149.928L120 150.696ZM108 160.696L108.64 161.464L108 161.998L107.36 161.464L108 160.696ZM96 150.696L95.3598 149.928L96 149.394L96.6402 149.928L96 150.696ZM84 160.696L84.6402 161.464L84 161.998L83.3598 161.464L84 160.696ZM72 150.696L71.3598 149.928L72 149.394L72.6402 149.928L72 150.696ZM60 160.696L60.6402 161.464L60 161.998L59.3598 161.464L60 160.696ZM48 150.696L47.3598 149.928L48 149.394L48.6402 149.928L48 150.696ZM36 160.696L36.6402 161.464L36 161.998L35.3598 161.464L36 160.696ZM24 150.696L23.3598 149.928L24 149.394L24.6402 149.928L24 150.696ZM12 160.696L12.6402 161.464L12 161.998L11.3598 161.464L12 160.696ZM1 151.53L0.359843 152.298L0 151.998V151.53H1ZM263 2H1V0H263V2ZM262 151.696V1H264V151.696H262ZM251.367 159.922L262.367 150.922L263.633 152.47L252.633 161.47L251.367 159.922ZM240.64 149.928L252.64 159.928L251.36 161.464L239.36 151.464L240.64 149.928ZM227.36 159.928L239.36 149.928L240.64 151.464L228.64 161.464L227.36 159.928ZM216.64 149.928L228.64 159.928L227.36 161.464L215.36 151.464L216.64 149.928ZM203.36 159.928L215.36 149.928L216.64 151.464L204.64 161.464L203.36 159.928ZM192.64 149.928L204.64 159.928L203.36 161.464L191.36 151.464L192.64 149.928ZM179.36 159.928L191.36 149.928L192.64 151.464L180.64 161.464L179.36 159.928ZM168.64 149.928L180.64 159.928L179.36 161.464L167.36 151.464L168.64 149.928ZM155.36 159.928L167.36 149.928L168.64 151.464L156.64 161.464L155.36 159.928ZM144.64 149.928L156.64 159.928L155.36 161.464L143.36 151.464L144.64 149.928ZM131.36 159.928L143.36 149.928L144.64 151.464L132.64 161.464L131.36 159.928ZM120.64 149.928L132.64 159.928L131.36 161.464L119.36 151.464L120.64 149.928ZM107.36 159.928L119.36 149.928L120.64 151.464L108.64 161.464L107.36 159.928ZM96.6402 149.928L108.64 159.928L107.36 161.464L95.3598 151.464L96.6402 149.928ZM83.3598 159.928L95.3598 149.928L96.6402 151.464L84.6402 161.464L83.3598 159.928ZM72.6402 149.928L84.6402 159.928L83.3598 161.464L71.3598 151.464L72.6402 149.928ZM59.3598 159.928L71.3598 149.928L72.6402 151.464L60.6402 161.464L59.3598 159.928ZM48.6402 149.928L60.6402 159.928L59.3598 161.464L47.3598 151.464L48.6402 149.928ZM35.3598 159.928L47.3598 149.928L48.6402 151.464L36.6402 161.464L35.3598 159.928ZM24.6402 149.928L36.6402 159.928L35.3598 161.464L23.3598 151.464L24.6402 149.928ZM11.3598 159.928L23.3598 149.928L24.6402 151.464L12.6402 161.464L11.3598 159.928ZM1.64016 150.762L12.6402 159.928L11.3598 161.464L0.359843 152.298L1.64016 150.762ZM2 1V151.53H0V1H2Z" fill="#EFEFEF" mask="url(#path-1-outside-1_1222:846)"/>
<path fill-rule="evenodd" clip-rule="evenodd" d="M216 150.696V29H12V160.696L24 150.696L36 160.696L48 150.696L60 160.696L72 150.696L84 160.696L96 150.696L108 160.696L120 150.696L132 160.696L144 150.696L156 160.696L168 150.696L180 160.696L192 150.696L204 160.696L216 150.696Z" fill="#EAECF0"/>
<path fill-rule="evenodd" clip-rule="evenodd" d="M251 159.863V58H226V159.029L228 160.696L240 150.696L251 159.863ZM251 162H226V163V164H251V162Z" fill="#EAECF0"/>
<path d="M253 22C253 14 247 8 239 8C231 8 225 14 225 22C225 30 231 36 239 36C247 36 253 30 253 22ZM226 45V40H251V45H226Z" fill="#EAECF0"/>
<path d="M31 5H5V11H31V5ZM55 5H33V11H55V5ZM79 5H57V11H79V5ZM102 5H89V11H102V5ZM87 5H81V11H87V5ZM110 5H104V11H110V5Z" fill="#EAECF0"/>
<path d="M6 16V20H98V16H6ZM5 15H99V21H5V15Z" fill="#EAECF0"/>
<path d="M96 17H94V19H96V17Z" fill="#EAECF0"/>
<path d="M20 54H209V98H20V54Z" fill="white" stroke="#3366CC" stroke-width="2"/>
<rect width="86" height="3" transform="matrix(-1 0 0 1 204 59)" fill="#7A818E"/>
<rect width="39" height="3" transform="matrix(-1 0 0 1 204 68)" fill="#7A818E"/>
<rect width="39" height="3" transform="matrix(-1 0 0 1 157 68)" fill="#7A818E"/>
<rect width="39" height="3" transform="matrix(-1 0 0 1 110 68)" fill="#7A818E"/>
<rect width="39" height="3" transform="matrix(-1 0 0 1 204 75)" fill="#7A818E"/>
<rect width="39" height="3" transform="matrix(-1 0 0 1 157 75)" fill="#7A818E"/>
<rect width="39" height="3" transform="matrix(-1 0 0 1 110 75)" fill="#7A818E"/>
<rect width="39" height="3" transform="matrix(-1 0 0 1 204 82)" fill="#7A818E"/>
<rect width="39" height="3" transform="matrix(-1 0 0 1 157 82)" fill="#7A818E"/>
<rect width="39" height="3" transform="matrix(-1 0 0 1 157 89)" fill="#7A818E"/>
<rect width="153" height="3" transform="matrix(-1 0 0 1 177 111)" fill="#C8CCD1"/>
<rect width="153" height="3" transform="matrix(-1 0 0 1 177 118)" fill="#C8CCD1"/>
<rect width="153" height="3" transform="matrix(-1 0 0 1 177 125)" fill="#C8CCD1"/>
<rect width="153" height="3" transform="matrix(-1 0 0 1 177 132)" fill="#C8CCD1"/>
<rect width="153" height="3" transform="matrix(-1 0 0 1 177 139)" fill="#C8CCD1"/>
<rect width="9" height="3" transform="matrix(-1 0 0 1 203 111)" fill="#C8CCD1"/>
<rect width="9" height="3" transform="matrix(-1 0 0 1 203 118)" fill="#C8CCD1"/>
<rect width="9" height="3" transform="matrix(-1 0 0 1 203 125)" fill="#C8CCD1"/>
<rect width="9" height="3" transform="matrix(-1 0 0 1 203 132)" fill="#C8CCD1"/>
<rect width="9" height="3" transform="matrix(-1 0 0 1 203 139)" fill="#C8CCD1"/>
<rect width="9" height="3" transform="matrix(-1 0 0 1 190 111)" fill="#C8CCD1"/>
<rect width="9" height="3" transform="matrix(-1 0 0 1 190 118)" fill="#C8CCD1"/>
<rect width="9" height="3" transform="matrix(-1 0 0 1 190 125)" fill="#C8CCD1"/>
<rect width="9" height="3" transform="matrix(-1 0 0 1 190 132)" fill="#C8CCD1"/>
<rect width="9" height="3" transform="matrix(-1 0 0 1 190 139)" fill="#C8CCD1"/>
<rect width="54" height="6" transform="matrix(-1 0 0 1 203 36)" fill="#C8CCD1"/>
</g>
<defs>
<clipPath id="clip0_1222:846">
<rect width="264" height="162" fill="white" transform="matrix(-1 0 0 1 264 0)"/>
</clipPath>
</defs>
</svg>
