<svg width="264" height="162" viewBox="0 0 264 162" fill="none" xmlns="http://www.w3.org/2000/svg">
<g clip-path="url(#clip0_958:647)">
<mask id="path-1-outside-1_958:647" maskUnits="userSpaceOnUse" x="0" y="0" width="264" height="162" fill="black">
<rect fill="white" width="264" height="162"/>
<path fill-rule="evenodd" clip-rule="evenodd" d="M263 1H1V151.696L12 160.696L24 150.696L36 160.696L48 150.696L60 160.696L72 150.696L84 160.696L96 150.696L108 160.696L120 150.696L132 160.696L144 150.696L156 160.696L168 150.696L180 160.696L192 150.696L204 160.696L216 150.696L228 160.696L240 150.696L252 160.696L263 151.53V1Z"/>
</mask>
<path fill-rule="evenodd" clip-rule="evenodd" d="M263 1H1V151.696L12 160.696L24 150.696L36 160.696L48 150.696L60 160.696L72 150.696L84 160.696L96 150.696L108 160.696L120 150.696L132 160.696L144 150.696L156 160.696L168 150.696L180 160.696L192 150.696L204 160.696L216 150.696L228 160.696L240 150.696L252 160.696L263 151.53V1Z" fill="white"/>
<path d="M1 1V0H0V1H1ZM263 1H264V0H263V1ZM1 151.696H0V152.17L0.366762 152.47L1 151.696ZM12 160.696L11.3668 161.47L12.0058 161.993L12.6402 161.464L12 160.696ZM24 150.696L24.6402 149.928L24 149.394L23.3598 149.928L24 150.696ZM36 160.696L35.3598 161.464L36 161.998L36.6402 161.464L36 160.696ZM48 150.696L48.6402 149.928L48 149.394L47.3598 149.928L48 150.696ZM60 160.696L59.3598 161.464L60 161.998L60.6402 161.464L60 160.696ZM72 150.696L72.6402 149.928L72 149.394L71.3598 149.928L72 150.696ZM84 160.696L83.3598 161.464L84 161.998L84.6402 161.464L84 160.696ZM96 150.696L96.6402 149.928L96 149.394L95.3598 149.928L96 150.696ZM108 160.696L107.36 161.464L108 161.998L108.64 161.464L108 160.696ZM120 150.696L120.64 149.928L120 149.394L119.36 149.928L120 150.696ZM132 160.696L131.36 161.464L132 161.998L132.64 161.464L132 160.696ZM144 150.696L144.64 149.928L144 149.394L143.36 149.928L144 150.696ZM156 160.696L155.36 161.464L156 161.998L156.64 161.464L156 160.696ZM168 150.696L168.64 149.928L168 149.394L167.36 149.928L168 150.696ZM180 160.696L179.36 161.464L180 161.998L180.64 161.464L180 160.696ZM192 150.696L192.64 149.928L192 149.394L191.36 149.928L192 150.696ZM204 160.696L203.36 161.464L204 161.998L204.64 161.464L204 160.696ZM216 150.696L216.64 149.928L216 149.394L215.36 149.928L216 150.696ZM228 160.696L227.36 161.464L228 161.998L228.64 161.464L228 160.696ZM240 150.696L240.64 149.928L240 149.394L239.36 149.928L240 150.696ZM252 160.696L251.36 161.464L252 161.998L252.64 161.464L252 160.696ZM263 151.53L263.64 152.298L264 151.998V151.53H263ZM1 2H263V0H1V2ZM2 151.696V1H0V151.696H2ZM12.6332 159.922L1.63324 150.922L0.366762 152.47L11.3668 161.47L12.6332 159.922ZM23.3598 149.928L11.3598 159.928L12.6402 161.464L24.6402 151.464L23.3598 149.928ZM36.6402 159.928L24.6402 149.928L23.3598 151.464L35.3598 161.464L36.6402 159.928ZM47.3598 149.928L35.3598 159.928L36.6402 161.464L48.6402 151.464L47.3598 149.928ZM60.6402 159.928L48.6402 149.928L47.3598 151.464L59.3598 161.464L60.6402 159.928ZM71.3598 149.928L59.3598 159.928L60.6402 161.464L72.6402 151.464L71.3598 149.928ZM84.6402 159.928L72.6402 149.928L71.3598 151.464L83.3598 161.464L84.6402 159.928ZM95.3598 149.928L83.3598 159.928L84.6402 161.464L96.6402 151.464L95.3598 149.928ZM108.64 159.928L96.6402 149.928L95.3598 151.464L107.36 161.464L108.64 159.928ZM119.36 149.928L107.36 159.928L108.64 161.464L120.64 151.464L119.36 149.928ZM132.64 159.928L120.64 149.928L119.36 151.464L131.36 161.464L132.64 159.928ZM143.36 149.928L131.36 159.928L132.64 161.464L144.64 151.464L143.36 149.928ZM156.64 159.928L144.64 149.928L143.36 151.464L155.36 161.464L156.64 159.928ZM167.36 149.928L155.36 159.928L156.64 161.464L168.64 151.464L167.36 149.928ZM180.64 159.928L168.64 149.928L167.36 151.464L179.36 161.464L180.64 159.928ZM191.36 149.928L179.36 159.928L180.64 161.464L192.64 151.464L191.36 149.928ZM204.64 159.928L192.64 149.928L191.36 151.464L203.36 161.464L204.64 159.928ZM215.36 149.928L203.36 159.928L204.64 161.464L216.64 151.464L215.36 149.928ZM228.64 159.928L216.64 149.928L215.36 151.464L227.36 161.464L228.64 159.928ZM239.36 149.928L227.36 159.928L228.64 161.464L240.64 151.464L239.36 149.928ZM252.64 159.928L240.64 149.928L239.36 151.464L251.36 161.464L252.64 159.928ZM262.36 150.762L251.36 159.928L252.64 161.464L263.64 152.298L262.36 150.762ZM262 1V151.53H264V1H262Z" fill="#EFEFEF" mask="url(#path-1-outside-1_958:647)"/>
<path fill-rule="evenodd" clip-rule="evenodd" d="M48 150.696V29H252V160.696L240 150.696L228 160.696L216 150.696L204 160.696L192 150.696L180 160.696L168 150.696L156 160.696L144 150.696L132 160.696L120 150.696L108 160.696L96 150.696L84 160.696L72 150.696L60 160.696L48 150.696Z" fill="#EAECF0"/>
<path fill-rule="evenodd" clip-rule="evenodd" d="M13 159.863V58H38V159.029L36 160.696L24 150.696L13 159.863ZM13 162H38V163V164H13V162Z" fill="#EAECF0"/>
<path d="M11 22C11 14 17 8 25 8C33 8 39 14 39 22C39 30 33 36 25 36C17 36 11 30 11 22ZM38 45V40H13V45H38Z" fill="#EAECF0"/>
<path d="M233 5H259V11H233V5ZM209 5H231V11H209V5ZM185 5H207V11H185V5ZM162 5H175V11H162V5ZM177 5H183V11H177V5ZM154 5H160V11H154V5Z" fill="#EAECF0"/>
<path d="M258 16V20H166V16H258ZM259 15H165V21H259V15Z" fill="#EAECF0"/>
<path d="M168 17H170V19H168V17Z" fill="#EAECF0"/>
<path d="M244 54H55V98H244V54Z" fill="white" stroke="#3366CC" stroke-width="2"/>
<rect x="60" y="59" width="86" height="3" fill="#7A818E"/>
<rect x="60" y="68" width="39" height="3" fill="#7A818E"/>
<rect x="107" y="68" width="39" height="3" fill="#7A818E"/>
<rect x="154" y="68" width="39" height="3" fill="#7A818E"/>
<rect x="60" y="75" width="39" height="3" fill="#7A818E"/>
<rect x="107" y="75" width="39" height="3" fill="#7A818E"/>
<rect x="154" y="75" width="39" height="3" fill="#7A818E"/>
<rect x="60" y="82" width="39" height="3" fill="#7A818E"/>
<rect x="107" y="82" width="39" height="3" fill="#7A818E"/>
<rect x="107" y="89" width="39" height="3" fill="#7A818E"/>
<rect x="87" y="111" width="153" height="3" fill="#C8CCD1"/>
<rect x="87" y="118" width="153" height="3" fill="#C8CCD1"/>
<rect x="87" y="125" width="153" height="3" fill="#C8CCD1"/>
<rect x="87" y="132" width="153" height="3" fill="#C8CCD1"/>
<rect x="87" y="139" width="153" height="3" fill="#C8CCD1"/>
<rect x="61" y="111" width="9" height="3" fill="#C8CCD1"/>
<rect x="61" y="118" width="9" height="3" fill="#C8CCD1"/>
<rect x="61" y="125" width="9" height="3" fill="#C8CCD1"/>
<rect x="61" y="132" width="9" height="3" fill="#C8CCD1"/>
<rect x="61" y="139" width="9" height="3" fill="#C8CCD1"/>
<rect x="74" y="111" width="9" height="3" fill="#C8CCD1"/>
<rect x="74" y="118" width="9" height="3" fill="#C8CCD1"/>
<rect x="74" y="125" width="9" height="3" fill="#C8CCD1"/>
<rect x="74" y="132" width="9" height="3" fill="#C8CCD1"/>
<rect x="74" y="139" width="9" height="3" fill="#C8CCD1"/>
<rect x="61" y="36" width="54" height="6" fill="#C8CCD1"/>
</g>
<defs>
<clipPath id="clip0_958:647">
<rect width="264" height="162" fill="white"/>
</clipPath>
</defs>
</svg>
